<?xml version="1.0" encoding="UTF-8" standalone="no"?>
<svg
   xmlns:dc="http://purl.org/dc/elements/1.1/"
   xmlns:cc="http://creativecommons.org/ns#"
   xmlns:rdf="http://www.w3.org/1999/02/22-rdf-syntax-ns#"
   xmlns:svg="http://www.w3.org/2000/svg"
   xmlns="http://www.w3.org/2000/svg"
   id="svg8"
   version="1.1"
   viewBox="0 0 122.70484 76.067713"
   height="76.067711mm"
   width="122.70483mm">
  <defs
     id="defs2" />
  <metadata
     id="metadata5">
    <rdf:RDF>
      <cc:Work
         rdf:about="">
        <dc:format>image/svg+xml</dc:format>
        <dc:type
           rdf:resource="http://purl.org/dc/dcmitype/StillImage" />
        <dc:title></dc:title>
      </cc:Work>
    </rdf:RDF>
  </metadata>
  <g
     transform="translate(51.902489,-209.70628)"
     id="layer1">
    <path
       id="path4557"
       d="m -38.584005,285.12456 c -0.62451,-0.62451 -0.64943,-0.78466 -0.64943,-4.17369 v -3.52425 l -2.05052,-0.32364 c -5.13732,-0.81084 -9.16333,-4.50976 -10.25244,-9.41949 -0.35711,-1.60982 -0.40704,-3.84024 -0.34151,-15.25308 l 0.0768,-13.36754 0.86467,-1.75587 c 1.14213,-2.31931 3.32783,-4.49006 5.62392,-5.58545 l 1.77779,-0.84813 0.13276,-2.91065 c 0.41717,-9.14652 6.40883,-15.47354 16.86857,-17.81271 1.80077,-0.40272 5.13013,-0.44378 35.9833302,-0.44378 32.2585398,0 34.1073098,0.0253 36.1156298,0.49394 10.49724,2.44963 16.3197,8.62913 16.73628,17.76255 l 0.13275,2.91065 1.75194,0.8394 c 2.25649,1.08114 4.54736,3.35845 5.66992,5.63634 l 0.84452,1.71371 0.0768,13.36754 c 0.0655,11.41284 0.0156,13.64326 -0.34151,15.25308 -1.08911,4.90973 -5.11513,8.60865 -10.25244,9.41949 l -2.05052,0.32364 v 3.52425 c 0,3.38903 -0.0249,3.54918 -0.64944,4.17369 -0.40937,0.40937 -0.95172,0.64943 -1.46723,0.64943 -0.51551,0 -1.05786,-0.24006 -1.46723,-0.64943 -0.6256,-0.6256 -0.64944,-0.78098 -0.64944,-4.23334 v -3.5839 H 9.4499652 -35.000035 v 3.5839 c 0,3.45236 -0.0238,3.60774 -0.64943,4.23334 -0.40937,0.40937 -0.95173,0.64943 -1.46723,0.64943 -0.51551,0 -1.05786,-0.24006 -1.46724,-0.64943 z m 100.68599,-12.73633 c 1.77453,-0.82489 2.79883,-1.81219 3.6245,-3.49357 l 0.74112,-1.50921 0.0776,-13.45719 c 0.0876,-15.19334 0.0922,-15.15037 -1.82323,-17.06578 -2.46959,-2.46959 -6.47218,-2.47196 -8.93886,-0.005 -1.65862,1.65861 -1.88321,2.6956 -1.88321,8.6953 0,5.04467 -0.0193,5.23141 -0.67925,6.55566 -0.76936,1.54391 -2.08956,2.8149 -3.66907,3.53232 -1.03026,0.46794 -2.72189,0.48855 -40.1016798,0.48855 -38.6808502,0 -39.0365702,-0.005 -40.2166602,-0.53833 -1.59832,-0.72266 -2.84379,-1.95063 -3.60169,-3.5511 -0.59217,-1.25046 -0.62662,-1.60652 -0.62906,-6.5013 -0.003,-5.98382 -0.22902,-7.02433 -1.8858,-8.68111 -2.46414,-2.46414 -6.46943,-2.46414 -8.93358,0 -1.87965,1.87966 -1.88321,1.91038 -1.88321,16.27486 0,8.0112 0.10472,13.26042 0.28093,14.08204 0.57686,2.6898 2.55488,4.76934 5.22326,5.49133 0.98787,0.26729 11.68662,0.32599 52.1749802,0.28625 l 50.9322898,-0.05 z M 7.3332352,232.85732 v -19.05 h -14.75746 c -18.0279002,0 -19.7944802,0.17224 -24.2685902,2.36606 -4.9234,2.41414 -7.55203,6.88971 -7.53538,12.82993 l 0.005,1.86964 1.7807,0.83964 c 2.28286,1.07642 4.56203,3.3304 5.69867,5.63571 l 0.84452,1.71285 0.1323,5.91798 c 0.13023,5.82574 0.14202,5.92585 0.75691,6.42309 0.60129,0.48623 1.31063,0.5051 18.98386,0.5051 H 7.3329952 Z m 41.5764198,18.5449 c 0.61488,-0.49724 0.62668,-0.59735 0.75691,-6.42309 l 0.13229,-5.91798 0.86467,-1.75501 c 1.15586,-2.34605 3.33,-4.49409 5.65268,-5.58483 l 1.80655,-0.84836 5.3e-4,-1.98438 c 0.003,-8.35499 -5.0262,-13.42908 -14.67454,-14.80638 -1.05574,-0.15071 -8.30822,-0.26664 -16.86719,-0.26963 l -15.01499,-0.005 v 19.05 19.05 h 18.35923 c 17.67323,0 18.38257,-0.0189 18.98386,-0.5051 z"
       style="fill:#010101;stroke-width:0.26458332" />
  </g>
</svg>
