<?xml version="1.0" encoding="UTF-8" standalone="no"?>
<svg
   xmlns:dc="http://purl.org/dc/elements/1.1/"
   xmlns:cc="http://creativecommons.org/ns#"
   xmlns:rdf="http://www.w3.org/1999/02/22-rdf-syntax-ns#"
   xmlns:svg="http://www.w3.org/2000/svg"
   xmlns="http://www.w3.org/2000/svg"
   id="svg8"
   version="1.1"
   viewBox="0 0 135.47147 135.31522"
   height="135.31522mm"
   width="135.47147mm">
  <defs
     id="defs2" />
  <metadata
     id="metadata5">
    <rdf:RDF>
      <cc:Work
         rdf:about="">
        <dc:format>image/svg+xml</dc:format>
        <dc:type
           rdf:resource="http://purl.org/dc/dcmitype/StillImage" />
        <dc:title></dc:title>
      </cc:Work>
    </rdf:RDF>
  </metadata>
  <g
     transform="translate(138.10437,-119.03112)"
     id="layer1">
    <path
       id="path4544"
       d="m -132.83306,253.59209 c -0.6699,-0.6699 -0.77339,-0.97085 -0.77339,-2.24896 v -1.47556 h -1.47557 c -1.2781,0 -1.57905,-0.10349 -2.24895,-0.77339 l -0.7734,-0.7734 v -27.82196 -27.82195 l 0.7734,-0.7734 0.77339,-0.77339 h 24.06058 24.060586 l 0.154236,-1.3023 c 0.178641,-1.50833 1.154559,-3.56958 2.316757,-4.89325 1.012545,-1.15323 3.607213,-2.47164 5.308336,-2.69731 l 1.290211,-0.17115 v -2.21487 -2.21487 h -15.033227 c -16.702299,0 -16.758539,-0.005 -18.755589,-1.71454 -0.59931,-0.51299 -1.36802,-1.49794 -1.70823,-2.18877 l -0.61858,-1.25607 v -24.20937 c 0,-21.78231 0.0431,-24.30414 0.42993,-25.15466 0.6113,-1.34408 1.98666,-2.82648 3.24919,-3.50207 l 1.08338,-0.57973 h 40.348959 40.348955 l 1.08339,0.57973 c 1.26253,0.67559 2.63789,2.15799 3.24919,3.50207 0.386821,0.85052 0.429921,3.37235 0.429921,25.15466 v 24.20937 l -0.627851,1.26401 c -0.34532,0.6952 -1.11402,1.68015 -1.70823,2.18877 -1.98657,1.70043 -2.05434,1.7066 -18.746315,1.7066 h -15.033227 v 2.21487 2.21487 l 1.290211,0.17115 c 3.851646,0.51094 7.179461,3.82791 7.626392,7.60154 l 0.152937,1.29132 h 24.060582 24.060581 l 0.7758,0.7758 0.7758,0.7758 -0.0685,27.95442 -0.0686,27.95443 -0.74235,0.63852 c -0.58815,0.50588 -1.04159,0.63852 -2.18282,0.63852 h -1.44045 v 1.47556 c 0,1.27811 -0.1035,1.57906 -0.7734,2.24896 -0.82548,0.82549 -1.55338,0.96186 -2.48514,0.4656 -0.96189,-0.51231 -1.22216,-1.07657 -1.23096,-2.66876 l -0.008,-1.52136 h -58.737916 -58.737499 l -0.008,1.52136 c -0.009,1.59219 -0.26907,2.15645 -1.23096,2.66876 -0.93176,0.49626 -1.65966,0.35989 -2.48514,-0.4656 z M -7.135625,234.12487 v -11.2448 h -63.235416 -63.235409 v 11.2448 11.24479 h 63.235409 63.235416 z M -129.10854,211.3707 v -6.74687 h -2.24896 -2.24895 v 6.74687 6.74688 h 2.24895 2.24896 z m 49.741666,0 v -6.74687 h -22.621876 -22.62187 v 6.74687 6.74688 h 22.62187 22.621876 z m -39.871176,3.99224 c -0.72097,-0.61959 -0.74489,-0.72501 -0.83015,-3.65816 -0.0856,-2.94622 -0.0705,-3.04074 0.61884,-3.85994 0.90732,-1.07829 2.21881,-1.15666 3.18514,-0.19033 0.61398,0.61398 0.64943,0.81498 0.64943,3.68252 0,1.66821 -0.074,3.22583 -0.16435,3.4614 -0.19677,0.51276 -1.45233,1.20248 -2.189,1.20248 -0.29016,0 -0.86162,-0.28709 -1.26991,-0.63797 z m 8.99583,-5.3e-4 c -0.73675,-0.63377 -0.74236,-0.66263 -0.74236,-3.81519 0,-2.99778 0.0361,-3.21503 0.64143,-3.85937 0.79557,-0.84684 2.0505,-0.90256 3.02705,-0.1344 0.68656,0.54004 0.69714,0.59845 0.69714,3.84848 0,3.15105 -0.0293,3.32945 -0.64943,3.94955 -0.84107,0.84107 -2.00373,0.84533 -2.97383,0.0109 z m 9.0352,-0.0109 c -0.6201,-0.62015 -0.64944,-0.79855 -0.64944,-3.9496 0,-3.25003 0.0106,-3.30844 0.69714,-3.84848 0.97688,-0.76842 2.231584,-0.71248 3.027057,0.13496 0.605284,0.64482 0.641432,0.86232 0.641432,3.8596 0,3.15227 -0.0056,3.1811 -0.742358,3.81459 -0.970161,0.83418 -2.132881,0.82984 -2.973831,-0.0111 z m 8.921683,-2.34418 c -0.884171,-0.94116 -0.779539,-2.34372 0.238765,-3.20057 0.759894,-0.63941 0.993116,-0.68472 3.505729,-0.68108 2.98954,0.004 3.823174,0.27382 4.36911,1.41241 0.4182,0.87219 0.232973,1.83266 -0.493538,2.55917 -0.463677,0.46368 -0.889217,0.52244 -3.783608,0.52244 -3.066764,0 -3.295465,-0.0365 -3.836458,-0.61237 z m 26.412212,-1.63665 v -6.74687 h -4.497916 -4.497916 v 6.74687 6.74688 h 4.497916 4.497916 z m 49.74167,0 v -6.74687 h -22.621879 -22.621874 v 6.74687 6.74688 h 22.621874 22.621879 z m -39.945356,1.72652 c -0.726511,-0.72651 -0.911738,-1.68698 -0.493538,-2.55917 0.578239,-1.20596 1.357038,-1.44097 4.501113,-1.35828 2.570655,0.0676 2.8848,0.13174 3.505729,0.7157 0.846063,0.79568 0.901496,2.05093 0.133678,3.02705 -0.539856,0.68631 -0.599421,0.69714 -3.836458,0.69714 -2.92119,0 -3.346384,-0.0583 -3.810524,-0.52244 z m 13.572566,-0.0729 c -0.765516,-0.85045 -0.897019,-1.39155 -0.567745,-2.33611 0.383027,-1.09876 1.677754,-1.6756 2.846443,-1.2682 0.97306,0.33922 1.339921,0.92834 1.339921,2.15173 0,1.82945 -2.408954,2.79645 -3.618619,1.45258 z m 8.956409,-0.0171 c -0.33556,-0.35717 -0.57529,-0.95455 -0.57529,-1.43355 0,-2.21695 0.63115,-2.45199 6.58422,-2.45199 2.617131,0 5.058121,0.11395 5.424421,0.25322 0.83982,0.3193 1.58154,1.70778 1.36762,2.56013 -0.0883,0.35183 -0.39565,0.87479 -0.68299,1.16213 -0.48675,0.48675 -0.89888,0.52244 -6.032571,0.52244 -5.41757,0 -5.51979,-0.0103 -6.08541,-0.61237 z m 26.412211,-1.63658 v -6.74687 h -2.24896 -2.24896 v 6.74687 6.74688 h 2.24896 2.24896 z m 0,-13.49375 v -2.24896 h -63.235416 -63.235409 v 2.24896 2.24896 h 63.235409 63.235416 z m -49.746019,-7.34211 c -0.0079,-1.07909 -1.124646,-2.63976 -2.352365,-3.28744 -1.160614,-0.61227 -1.212895,-0.61516 -11.122583,-0.61516 -9.799394,0 -9.975101,0.009 -11.135942,0.59531 -1.242226,0.627 -2.359718,2.18782 -2.367904,3.30729 l -0.0044,0.59532 h 13.493749 13.493749 l -0.0044,-0.59532 z m -8.991481,-10.64947 v -2.24896 h -4.497916 -4.497916 v 2.24896 2.24895 h 4.497916 4.497916 z m 34.762809,-7.0001 c 1.55081,-0.58961 1.50019,0.30085 1.42323,-25.03257 l -0.0704,-23.17889 -0.74235,-0.63849 -0.74236,-0.63849 h -39.128845 -39.128819 l -0.74236,0.63849 -0.74236,0.63849 -0.0704,23.03995 c -0.0762,24.93235 -0.0946,24.58167 1.31545,25.14755 0.83462,0.33496 77.749614,0.3584 78.629244,0.024 z m -74.223804,-4.64591 c -0.38475,-0.20902 -0.83123,-0.7578 -0.99219,-1.21951 -0.20269,-0.58143 -0.29265,-6.36055 -0.29265,-18.80017 0,-19.17005 0.0121,-19.35882 1.28313,-20.03906 0.75353,-0.40328 69.176047,-0.40328 69.929581,0 1.271033,0.68024 1.283123,0.86901 1.283123,20.03906 0,12.4626 -0.0898,18.21821 -0.29327,18.80195 -0.59968,1.72026 1.64466,1.62001 -36.007652,1.60835 -29.219989,-0.009 -34.312582,-0.066 -34.910072,-0.39062 z m 66.448494,-19.9717 v -15.875 h -31.485415 -31.485419 v 15.875 15.875 h 31.485419 31.485415 z"
       style="fill:#585858;stroke-width:0.26458332" />
  </g>
</svg>
