<?xml version="1.0" encoding="UTF-8" standalone="no"?>
<svg
   xmlns:dc="http://purl.org/dc/elements/1.1/"
   xmlns:cc="http://creativecommons.org/ns#"
   xmlns:rdf="http://www.w3.org/1999/02/22-rdf-syntax-ns#"
   xmlns:svg="http://www.w3.org/2000/svg"
   xmlns="http://www.w3.org/2000/svg"
   id="svg8"
   version="1.1"
   viewBox="0 0 112.026 76.326515"
   height="76.326515mm"
   width="112.026mm">
  <defs
     id="defs2" />
  <metadata
     id="metadata5">
    <rdf:RDF>
      <cc:Work
         rdf:about="">
        <dc:format>image/svg+xml</dc:format>
        <dc:type
           rdf:resource="http://purl.org/dc/dcmitype/StillImage" />
        <dc:title></dc:title>
      </cc:Work>
    </rdf:RDF>
  </metadata>
  <g
     transform="translate(-105.87719,-103.24596)"
     id="layer1">
    <path
       id="path4496"
       d="m 215.35189,179.44917 c -1.20278,-0.48015 -1.41738,-1.21009 -1.41738,-4.82113 v -3.38071 h -38.72679 c -42.84027,0 -40.74638,0.078 -46.11753,-1.71758 -11.61919,-3.88427 -20.02347,-13.40022 -22.61374,-25.60497 -0.80094,-3.77386 -0.79875,-9.53164 0.005,-13.35282 2.60042,-12.36162 11.34223,-22.07459 23.246,-25.82844 3.69829,-1.16625 7.1,-1.58429 11.55647,-1.42017 5.83,0.2147 10.64915,1.5802 15.50053,4.39205 l 2.24896,1.30349 2.91455,-2.88474 c 4.01392,-3.97287 3.6666,-4.00971 8.54048,0.90607 4.8452,4.88686 4.80617,4.489 0.83514,8.51386 l -2.92336,2.963 1.45165,2.75106 c 1.60215,3.03627 2.59256,5.7564 3.41007,9.36565 0.50546,2.23154 0.54633,3.45835 0.65013,19.51302 l 0.11075,17.13177 h 21.24305 c 21.09039,0 21.24806,0.004 21.94018,0.54837 l 0.69714,0.54837 v 5.09916 c 0,4.52507 -0.0521,5.14494 -0.46302,5.50575 -0.64063,0.56255 -1.4171,0.73691 -2.08835,0.46894 z M 169.7491,150.92104 c 0,-18.02962 -0.0773,-19.13559 -1.64867,-23.59454 -1.53032,-4.34242 -3.47693,-7.46952 -6.81398,-10.94623 -4.0326,-4.20138 -9.6323,-7.31935 -15.34985,-8.54696 -2.70365,-0.58049 -9.31877,-0.65183 -11.77396,-0.12697 -11.53981,2.46693 -20.51614,10.86295 -23.40485,21.89173 -3.22432,12.31009 1.76872,25.56402 12.23659,32.48181 2.80406,1.85309 4.40813,2.64581 7.34459,3.62961 4.28401,1.43528 5.48934,1.51545 23.2044,1.54346 l 16.20573,0.0256 z m -33.79075,-2.67814 c -2.87883,-1.05324 -5.3974,-3.39999 -6.77926,-6.3168 -0.78213,-1.6509 -0.83728,-1.95902 -0.83728,-4.67773 0,-2.72573 0.0538,-3.02389 0.84705,-4.69861 0.94666,-1.99848 3.02267,-4.35759 4.67581,-5.31345 2.07902,-1.2021 3.70028,-1.56581 6.47508,-1.45261 2.18953,0.0893 2.80999,0.22419 4.34638,0.94483 4.55543,2.13671 7.38666,7.35978 6.5913,12.15964 -0.64478,3.89112 -3.14575,7.26151 -6.5913,8.88265 -1.61033,0.75767 -2.07421,0.85003 -4.57036,0.90998 -2.19684,0.0528 -3.06673,-0.0389 -4.15742,-0.4379 z m 6.3284,-3.86514 c 1.53462,-0.5229 3.18518,-1.93232 4.11474,-3.51358 0.64605,-1.09901 0.72574,-1.49601 0.72574,-3.61581 0,-2.1198 -0.0797,-2.5168 -0.72574,-3.6158 -0.39916,-0.67901 -1.21959,-1.65727 -1.82317,-2.17392 -4.02513,-3.44536 -10.48383,-1.49289 -12.00489,3.62908 -0.49628,1.67115 -0.49788,2.64475 -0.007,4.29753 1.22368,4.12055 5.63297,6.38522 9.72037,4.9925 z m -24.61444,-6.81571 c -1.55457,-1.65476 0.0578,-8.89574 2.99026,-13.42884 2.06738,-3.19584 6.89224,-7.39005 8.50125,-7.39005 0.96398,0 1.95611,0.99056 1.95611,1.95301 0,1.07817 -0.29586,1.43949 -2.18315,2.66613 -3.17463,2.06335 -6.21128,6.32523 -7.17977,10.07668 -0.22704,0.87942 -0.49089,2.48676 -0.58635,3.57187 -0.12715,1.44545 -0.31819,2.1321 -0.71451,2.56825 -0.72585,0.79879 -2.02488,0.79083 -2.78384,-0.017 z m 38.85423,-10.16941 c -0.30954,-0.40018 -1.16744,-1.53276 -1.90643,-2.51683 -2.82373,-3.76024 -8.50678,-6.80973 -12.69062,-6.80973 -2.17942,0 -3.3755,-0.74877 -3.39281,-2.12394 -0.0123,-0.97802 0.67823,-1.80074 1.66712,-1.98625 2.43625,-0.45705 8.25847,1.0759 11.57923,3.04873 3.6763,2.18405 8.17649,7.26571 8.17649,9.23298 0,1.82086 -2.31538,2.59989 -3.43298,1.15504 z m 11.10589,-13.95677 1.70451,-1.71979 -1.70451,-1.7198 c -0.93747,-0.94589 -1.77002,-1.71979 -1.8501,-1.71979 -0.0801,0 -0.91665,0.69825 -1.85905,1.55168 l -1.71344,1.55168 1.71911,1.8673 c 0.94551,1.02701 1.78208,1.87656 1.85904,1.8879 0.077,0.0113 0.90697,-0.75329 1.84444,-1.69918 z"
       style="fill:#040404;stroke-width:0.26458332" />
  </g>
</svg>
