<?xml version="1.0" encoding="UTF-8" standalone="no"?>
<svg
   xmlns:dc="http://purl.org/dc/elements/1.1/"
   xmlns:cc="http://creativecommons.org/ns#"
   xmlns:rdf="http://www.w3.org/1999/02/22-rdf-syntax-ns#"
   xmlns:svg="http://www.w3.org/2000/svg"
   xmlns="http://www.w3.org/2000/svg"
   id="svg8"
   version="1.1"
   viewBox="0 0 134.40833 76.199997"
   height="76.199997mm"
   width="134.40833mm">
  <defs
     id="defs2" />
  <metadata
     id="metadata5">
    <rdf:RDF>
      <cc:Work
         rdf:about="">
        <dc:format>image/svg+xml</dc:format>
        <dc:type
           rdf:resource="http://purl.org/dc/dcmitype/StillImage" />
        <dc:title></dc:title>
      </cc:Work>
    </rdf:RDF>
  </metadata>
  <g
     transform="translate(-5.5184527,-137.98541)"
     id="layer1">
    <path
       id="path4522"
       d="m 5.5184527,195.13541 v -19.05 H 54.995534 104.47261 v -19.05 -19.05 h 17.72709 17.72708 v 38.1 38.1 H 72.722616 5.5184527 Z m 27.7812493,0 V 181.1125 H 21.922619 10.545536 v 14.02291 14.02292 h 11.377083 11.377083 z m -5.027083,-0.39687 v -4.63021 h 1.322916 1.322917 v 4.63021 4.63021 h -1.322917 -1.322916 z m 35.454165,2.91041 V 186.13958 H 49.836159 35.945535 v 11.50937 11.50938 h 13.890624 13.890625 z m -22.754166,0.1323 v -6.35 h 8.863541 8.863542 v 6.35 6.35 h -8.863542 -8.863541 z m 63.499992,5.02708 v -6.35 H 85.422616 66.372617 v 6.35 6.35 h 19.049999 19.049994 z m -26.193744,0.005 v -1.32771 h 6.364496 6.364497 l -0.08064,1.25677 -0.08064,1.25677 -6.283854,0.0709 -6.283854,0.0709 z m 56.620824,-14.68917 v -21.03437 h -12.69999 -12.7 v 21.03437 21.03438 h 12.7 12.69999 z m -22.75416,-10.84791 v -5.15938 h 1.19062 1.19063 v 5.15938 5.15937 h -1.19063 -1.19062 z m -7.67292,10.18646 v -6.35 H 85.422616 66.372617 v 6.35 6.35 h 19.049999 19.049994 z m -26.193744,-0.005 V 186.13 l 6.283854,0.0709 6.283854,0.0709 0.08064,1.25677 0.08064,1.25677 h -6.364492 -6.364496 z m -35.318783,-4.76113 c 0.682736,-0.75441 0.623105,-2.08143 -0.120597,-2.68365 -0.8284,-0.67079 -1.767779,-0.61108 -2.540352,0.1615 -0.79339,0.79339 -0.821197,1.44209 -0.101062,2.35759 0.68612,0.87226 2.048113,0.95341 2.762011,0.16456 z m 8.112014,0.0947 c 0.71374,-0.64592 0.652475,-2.32442 -0.104185,-2.85441 -0.902166,-0.6319 -1.936724,-0.51696 -2.567758,0.28527 -0.301603,0.38342 -0.54837,0.90315 -0.54837,1.15494 0,0.25179 0.246767,0.77152 0.54837,1.15494 0.643726,0.81837 1.91756,0.94197 2.671943,0.25926 z m 8.202083,0 c 0.654634,-0.59244 0.630314,-2.06149 -0.04531,-2.73712 -1.115568,-1.11556 -3.175,-0.18087 -3.175,1.441 0,1.43206 2.125028,2.28734 3.220313,1.29612 z m 75.62551,-28.93087 V 143.0125 h -12.69999 -12.7 v 10.84791 10.84792 h 12.7 12.69999 z m -22.75416,0.52917 v -5.02708 h 1.19062 1.19063 v 5.02708 5.02708 h -1.19063 -1.19062 z m -72.495829,19.56924 c 0,-0.509 0.136491,-0.53485 2.444372,-0.46302 2.081855,0.0648 2.457508,0.14474 2.532943,0.53909 0.07937,0.4149 -0.174696,0.46302 -2.444374,0.46302 -2.372103,0 -2.532941,-0.0342 -2.532941,-0.53909 z m 15.213541,0.27451 c -0.365516,-0.59142 0.279178,-0.79375 2.529158,-0.79375 2.189244,0 2.365634,0.0395 2.365634,0.52917 0,0.48971 -0.17639,0.52916 -2.365634,0.52916 -1.301099,0 -2.43922,-0.11906 -2.529158,-0.26458 z m -21.56354,-13.36146 v -2.51354 h 4.497916 4.497917 v -10.18646 -10.18646 h 7.540624 7.540625 v 10.18646 10.18646 h 4.497916 4.497917 v 2.51354 2.51354 H 49.836159 33.299702 Z"
       style="fill:#3f3f3f;stroke-width:0.26458332" />
  </g>
</svg>
