<?xml version="1.0" encoding="UTF-8" standalone="no"?>
<svg
   xmlns:dc="http://purl.org/dc/elements/1.1/"
   xmlns:cc="http://creativecommons.org/ns#"
   xmlns:rdf="http://www.w3.org/1999/02/22-rdf-syntax-ns#"
   xmlns:svg="http://www.w3.org/2000/svg"
   xmlns="http://www.w3.org/2000/svg"
   id="svg8"
   version="1.1"
   viewBox="0 0 80.426658 99.435527"
   height="99.435524mm"
   width="80.426659mm">
  <defs
     id="defs2" />
  <metadata
     id="metadata5">
    <rdf:RDF>
      <cc:Work
         rdf:about="">
        <dc:format>image/svg+xml</dc:format>
        <dc:type
           rdf:resource="http://purl.org/dc/dcmitype/StillImage" />
        <dc:title></dc:title>
      </cc:Work>
    </rdf:RDF>
  </metadata>
  <g
     transform="translate(-62.564082,-106.03925)"
     id="layer1">
    <path
       id="path4522"
       d="m 80.974064,204.90632 c -0.54899,-0.4903 -0.94922,-1.66576 -2.26897,-6.66393 -0.88132,-3.33774 -1.63278,-6.09901 -1.66992,-6.13615 -0.0371,-0.0371 -2.72678,0.63992 -5.97698,1.50456 -3.2502,0.86465 -6.23279,1.57208 -6.62798,1.57208 -0.93452,0 -1.86994,-1.00324 -1.86612,-2.00142 0.002,-0.53552 2.71088,-5.45308 8.72359,-15.83667 l 8.72062,-15.05997 -1.06351,-1.15377 c -1.67314,-1.81514 -2.1267,-3.15093 -2.37122,-6.98354 -0.12834,-2.01145 -0.38216,-3.73805 -0.64037,-4.35604 -0.23527,-0.56309 -1.23977,-1.86154 -2.23221,-2.88546 -2.10097,-2.1676 -3.04965,-3.88219 -3.49983,-6.3254 -0.64943,-3.52457 0.4763,-6.70471 3.47749,-9.82376 2.51798,-2.61687 2.70767,-3.07606 2.89639,-7.01146 0.1351,-2.81718 0.26272,-3.53218 0.86115,-4.8248 0.92469,-1.99735 1.85177,-3.18064 3.35854,-4.28671 2.14998,-1.57823 3.74415,-2.05905 7.09076,-2.13863 3.48911,-0.083 4.76427,-0.55515 6.3565,-2.35375 1.56393,-1.76665 3.38138,-3.00427 5.26702,-3.58669 4.333686,-1.33854 8.589056,-0.0456 11.804556,3.58669 1.58558,1.79109 2.83356,2.25277 6.33927,2.34514 3.44837,0.0909 5.10258,0.59545 7.19553,2.19489 2.70198,2.06485 4.12316,5.08466 4.12316,8.76118 0,3.57497 0.45213,4.72653 2.77776,7.07492 2.21425,2.23591 3.21003,4.05438 3.63956,6.64647 0.58036,3.50236 -0.62583,6.76862 -3.57446,9.67936 -1.0024,0.98951 -2.00765,2.23967 -2.2339,2.77813 -0.24806,0.59037 -0.48545,2.29644 -0.598,4.29772 -0.21071,3.74674 -0.78057,5.43175 -2.46904,7.30068 l -0.93134,1.03088 8.70244,15.07695 c 6.22915,10.79198 8.7035,15.30822 8.70617,15.89072 0.005,0.99567 -0.93781,1.96434 -1.91099,1.96434 -0.3795,0 -3.3425,-0.71034 -6.58444,-1.57854 -3.24195,-0.8682 -5.94052,-1.53247 -5.99684,-1.47615 -0.0563,0.0563 -0.81493,2.82048 -1.68581,6.1426 -1.29215,4.92911 -1.7043,6.14973 -2.24056,6.63553 -0.88397,0.8008 -1.83611,0.75418 -2.70184,-0.13229 -0.39083,-0.40018 -4.81116,-7.84159 -9.82297,-16.53646 -5.01181,-8.69487 -9.18242,-15.80885 -9.26803,-15.80885 -0.0856,0 -4.258376,7.11398 -9.272826,15.80885 -5.01444,8.69487 -9.43543,16.13628 -9.82442,16.53646 -0.86192,0.88672 -1.81127,0.9331 -2.70793,0.13229 z m 10.25004,-21.28757 c 4.02619,-7.01511 7.32035,-12.81699 7.32035,-12.89306 0,-0.0761 -0.48098,-0.38368 -1.06884,-0.68358 -0.58786,-0.2999 -1.92732,-1.35658 -2.97657,-2.34818 -1.04924,-0.99159 -2.20537,-1.96424 -2.56918,-2.16145 -0.38031,-0.20616 -2.0672,-0.44384 -3.96875,-0.5592 -1.81901,-0.11036 -3.58488,-0.2342 -3.92417,-0.27521 -0.67673,-0.0818 0.0553,-1.26811 -10.21141,16.54721 -2.58483,4.48531 -4.64379,8.21101 -4.57546,8.27934 0.0683,0.0683 2.23992,-0.43725 4.82576,-1.12351 4.3328,-1.14989 4.75557,-1.21741 5.3908,-0.86103 0.79259,0.44467 1.13321,1.32645 2.56952,6.65184 l 0.98153,3.63924 0.44303,-0.72882 c 0.24367,-0.40086 3.73719,-6.46847 7.76339,-13.48359 z m 32.733986,9.18288 c 1.20017,-4.54199 1.73038,-5.55624 2.90458,-5.55624 0.30857,0 2.52047,0.55179 4.91533,1.2262 2.39487,0.67442 4.41046,1.17005 4.47911,1.10141 0.0686,-0.0686 -3.11646,-5.74718 -7.07799,-12.61898 -6.3997,-11.1011 -7.26271,-12.47494 -7.74009,-12.32173 -0.29551,0.0949 -2.02557,0.25628 -3.84458,0.35875 -3.90393,0.2199 -4.24715,0.36484 -6.77761,2.8621 -1.00174,0.9886 -2.27102,2.03461 -2.82062,2.32445 -0.54959,0.28986 -0.96631,0.65339 -0.92604,0.80787 0.2241,0.85957 15.44538,26.74329 15.5767,26.48812 0.0867,-0.16848 0.67674,-2.27085 1.31121,-4.67195 z m -18.6017,-26.07159 c 0.53576,-0.22385 1.82956,-1.23649 2.87512,-2.25032 1.28602,-1.24698 2.48239,-2.11537 3.69813,-2.68428 1.61509,-0.75579 2.13368,-0.85822 5.12002,-1.0113 3.69117,-0.1892 4.32728,-0.408 5.88968,-2.0258 1.38531,-1.43443 1.79886,-2.60541 1.79886,-5.09352 0,-4.19559 0.9099,-6.50499 3.7092,-9.41422 2.28956,-2.37948 2.73098,-3.24978 2.75106,-5.42396 0.0203,-2.19671 -0.76422,-3.82126 -2.61146,-5.40781 -2.62012,-2.25036 -3.86862,-5.3398 -3.81173,-9.43225 0.0263,-1.89149 -0.0747,-2.53312 -0.55489,-3.52504 -1.19856,-2.47589 -4.17649,-4.10088 -6.8431,-3.73413 -1.65244,0.22727 -4.79069,-0.43996 -6.36016,-1.35224 -0.67534,-0.39256 -2.03322,-1.51833 -3.01751,-2.50172 -2.11556,-2.11361 -3.64905,-2.77625 -5.8897,-2.54499 -1.89262,0.19534 -2.845636,0.73554 -5.061986,2.86934 -2.75127,2.64879 -5.89882,3.89896 -8.83558,3.50939 -2.68574,-0.35628 -5.68149,1.28442 -6.88514,3.77083 -0.49026,1.01275 -0.58869,1.63619 -0.55911,3.54125 0.0651,4.19412 -0.86148,6.43946 -3.91934,9.49732 -2.12267,2.12267 -2.84398,3.86112 -2.51427,6.05973 0.2618,1.74583 0.75273,2.5737 2.77185,4.67428 2.8099,2.92324 3.47012,4.54366 3.5701,8.76229 0.0631,2.66458 0.14091,3.0723 0.82614,4.3313 1.38621,2.54693 3.15549,3.44286 6.7989,3.44286 4.09133,0 6.01201,0.77585 8.92006,3.60321 0.94589,0.91964 2.19604,1.90914 2.77813,2.19889 1.308516,0.65135 3.967626,0.7213 5.356726,0.14089 z m -5.19624,-9.67607 c -5.427366,-0.82011 -10.604636,-4.306 -13.330286,-8.97537 -4.22384,-7.23597 -2.98861,-16.55263 2.97258,-22.42053 10.10833,-9.95015 27.121406,-5.31318 30.858496,8.41059 0.6343,2.32937 0.65057,6.93932 0.0327,9.25589 -2.42201,9.08026 -11.43205,15.10471 -20.53346,13.72942 z m 6.86195,-4.74389 c 5.67525,-1.64141 10.01778,-7.54167 10.03859,-13.63956 0.006,-1.77749 -0.86061,-5.10069 -1.77557,-6.80831 -0.99107,-1.84967 -3.82075,-4.62369 -5.76047,-5.64715 -5.52798,-2.91676 -12.251616,-1.9563 -16.635536,2.37636 -0.91059,0.89995 -2.03645,2.30865 -2.50193,3.13045 -0.97527,1.72186 -1.8969,5.04219 -1.8969,6.83391 0,3.43994 1.42515,7.12936 3.72525,9.6439 3.91666,4.28183 9.170746,5.7404 14.806566,4.1104 z"
       style="fill:#4c4c4c;stroke-width:0.26458332" />
  </g>
</svg>
