<?xml version="1.0" encoding="UTF-8" standalone="no"?>
<svg
   xmlns:dc="http://purl.org/dc/elements/1.1/"
   xmlns:cc="http://creativecommons.org/ns#"
   xmlns:rdf="http://www.w3.org/1999/02/22-rdf-syntax-ns#"
   xmlns:svg="http://www.w3.org/2000/svg"
   xmlns="http://www.w3.org/2000/svg"
   id="svg8"
   version="1.1"
   viewBox="0 0 135.48824 94.73941"
   height="94.73941mm"
   width="135.48824mm">
  <defs
     id="defs2" />
  <metadata
     id="metadata5">
    <rdf:RDF>
      <cc:Work
         rdf:about="">
        <dc:format>image/svg+xml</dc:format>
        <dc:type
           rdf:resource="http://purl.org/dc/dcmitype/StillImage" />
        <dc:title></dc:title>
      </cc:Work>
    </rdf:RDF>
  </metadata>
  <g
     transform="translate(3.4503647,-127.31719)"
     id="layer1">
    <g
       transform="translate(-7.8892845,54.037764)"
       id="layer1-0">
      <path
         id="path4509"
         d="m 5.2229193,167.25054 -0.7839995,-0.784 0.076748,-17.67069 0.076748,-17.67069 0.7220171,-1.9784 c 1.2965652,-3.55273 4.1310948,-7.00566 7.0006281,-8.52795 l 1.140896,-0.60524 0.0046,-16.14004 c 0.0037,-13.168722 0.07618,-16.481002 0.393444,-17.992122 1.250308,-5.95519 6.214484,-10.91936 12.16967,-12.16967 2.714173,-0.56985 49.107225,-0.57936 51.791052,-0.0106 5.143236,1.08992 9.700906,5.10335 11.597907,10.21297 l 0.632164,1.70274 0.07928,17.100822 0.07928,17.10083 1.674228,1.08274 c 2.227333,1.44045 4.594902,4.01757 5.638241,6.13728 1.690282,3.43409 1.665132,3.09758 1.665132,22.27823 v 17.41894 l -0.64944,0.64943 c -0.84076,0.84077 -2.003567,0.84527 -2.973826,0.0115 -0.741701,-0.63735 -0.742434,-0.64132 -0.828021,-4.49791 l -0.08567,-3.86 H 51.80102 8.9580407 v 3.55943 c 0,3.82421 -0.203615,4.67397 -1.232251,5.14265 -1.0332659,0.47078 -1.6657228,0.3469 -2.5028704,-0.49024 z M 94.683037,150.04287 v -4.49792 H 51.820539 8.9580407 v 4.49792 4.49792 H 51.820539 94.683037 Z m -0.04513,-13.82448 c -0.08648,-4.79112 -0.09366,-4.84238 -0.924438,-6.59596 -1.409221,-2.97455 -3.869875,-5.1815 -6.849594,-6.14337 -1.212496,-0.3914 -4.510984,-0.42503 -35.454165,-0.36147 l -34.117292,0.0701 -1.792242,0.84895 c -3.223639,1.52696 -5.6362303,4.5974 -6.2738493,7.98456 -0.147556,0.78385 -0.268283,3.13533 -0.268283,5.22552 v 3.80035 H 51.841555 94.725066 Z m -68.044821,-17.92322 5.861084,-0.002 -0.37098,-1.23267 c -0.541531,-1.79938 -0.474457,-4.99831 0.142396,-6.79122 0.782163,-2.27341 1.630809,-3.3022 7.614557,-9.23099 4.851037,-4.806482 5.756999,-5.586332 7.362425,-6.337602 3.426621,-1.60351 7.804179,-1.26604 10.813742,0.83365 0.594149,0.41452 3.597434,3.29382 6.673964,6.398442 6.114206,6.17003 6.740286,7.05007 7.288016,10.24417 0.30411,1.77343 0.172239,3.33435 -0.466418,5.52091 l -0.173881,0.59531 5.785545,0.002 c 3.182051,0.001 6.410624,0.0774 7.174608,0.16915 l 1.389063,0.16684 v -15.62369 c 0,-14.735392 -0.02927,-15.717842 -0.514808,-17.277862 -1.179182,-3.78873 -4.416242,-6.7722 -8.289649,-7.64025 -0.815594,-0.18278 -9.368824,-0.27782 -25.001619,-0.27782 -20.49483,0 -23.976005,0.0558 -25.319046,0.40558 -4.311086,1.1229 -7.523148,4.52848 -8.3416,8.84416 -0.159529,0.84119 -0.266608,7.46328 -0.266608,16.487812 v 15.08199 l 1.389062,-0.16684 c 0.763984,-0.0918 4.02655,-0.16789 7.250147,-0.16915 z m -3.022381,-4.6773 c -0.601643,-0.24207 -1.163307,-1.6643 -0.982451,-2.48773 0.519586,-2.36566 4.361456,-1.95749 4.361456,0.46337 0,1.25925 -0.898348,2.2057 -2.069725,2.18056 -0.535141,-0.0115 -1.124317,-0.0818 -1.30928,-0.1562 z m 53.770102,-0.47235 c -1.360848,-1.36084 -0.395375,-3.60598 1.574689,-3.66182 0.80428,-0.0228 1.150686,0.12465 1.64621,0.70074 1.294866,1.50537 0.349507,3.61051 -1.621374,3.61051 -0.655966,0 -1.151146,-0.20105 -1.599525,-0.64943 z m -45.013883,-8.94171 c -0.793877,-0.88196 -0.914948,-1.45303 -0.512339,-2.41661 0.484428,-1.1594 1.695206,-1.68236 2.818153,-1.21722 0.96951,0.40158 1.312804,0.97901 1.312804,2.20817 0,1.77046 -2.442178,2.73262 -3.618618,1.42566 z m 36.01805,-0.0541 c -1.363927,-1.36393 -0.355674,-3.68974 1.599525,-3.68974 0.757428,0 1.14418,0.17388 1.621787,0.72913 1.294464,1.50491 0.348745,3.61004 -1.621787,3.61004 -0.655965,0 -1.151146,-0.20105 -1.599525,-0.64943 z M 23.11333,94.961398 c -0.552411,-0.6565 -0.673432,-1.01685 -0.549544,-1.63629 0.325787,-1.62893 1.840826,-2.39168 3.276216,-1.64941 2.008146,1.03845 1.182119,4.12761 -1.103704,4.12761 -0.70298,0 -1.078432,-0.19477 -1.622968,-0.84191 z m 18.291852,0.29354 c -0.54171,-0.42611 -0.69714,-0.78005 -0.69714,-1.5875 0,-2.48628 3.162184,-3.19466 4.112101,-0.92118 0.911469,2.18145 -1.54078,3.98291 -3.414961,2.50868 z m 17.943959,-0.10106 c -1.718929,-1.71893 0.250761,-4.58925 2.430301,-3.54155 1.509167,0.72546 1.804831,2.48141 0.617701,3.66854 -0.75371,0.75371 -2.228754,0.69225 -3.048002,-0.12699 z m 18.142714,0.12699 c -1.182942,-1.18294 -0.891908,-2.94285 0.605708,-3.66279 2.146625,-1.03193 4.133521,1.84457 2.442294,3.5358 -0.819248,0.81924 -2.294292,0.8807 -3.048002,0.12699 z m -45.156354,-9.10059 c -1.646351,-1.41613 -0.402751,-4.11616 1.73808,-3.77361 1.174892,0.18799 1.871958,1.00467 1.871958,2.19316 0,1.92949 -2.123482,2.85913 -3.610038,1.58045 z m 18.017804,-0.0223 c -1.083352,-1.08335 -0.856551,-2.79722 0.460274,-3.47817 1.555441,-0.80435 3.22946,0.19406 3.22946,1.92609 0,1.90886 -2.346082,2.89574 -3.689734,1.55208 z m 17.991666,0 c -1.235049,-1.23505 -0.610513,-3.31796 1.125492,-3.75367 1.39921,-0.35118 2.979359,1.22897 2.628181,2.62818 -0.435711,1.736 -2.518627,2.36054 -3.753673,1.12549 z m -1.458849,30.685132 c 0.889108,-1.72986 0.927216,-4.25369 0.08797,-5.82632 -0.867481,-1.62555 -11.057191,-11.634642 -12.507721,-12.286012 -1.692693,-0.76012 -3.782232,-0.71936 -5.438156,0.10609 -1.695407,0.84513 -11.428896,10.581302 -12.287289,12.290682 -0.858594,1.70978 -0.818758,3.79323 0.108773,5.68904 l 0.724479,1.48078 14.317408,-0.0684 14.317411,-0.0684 z m 42.204688,50.54195 c -0.54629,-0.54628 -0.64944,-0.90347 -0.64944,-2.24895 v -1.59953 h -1.59952 c -1.33343,0 -1.70465,-0.10512 -2.23143,-0.6319 -0.34754,-0.34754 -0.705,-1.03215 -0.79436,-1.52135 -0.0894,-0.4892 -0.12702,-5.96989 -0.0837,-12.17932 l 0.0788,-11.28985 0.64143,-0.68254 0.64143,-0.68254 h 4.94715 4.94714 l 0.17312,-1.08261 c 0.33228,-2.07795 1.93209,-4.23132 3.76354,-5.06579 l 0.62889,-0.28654 v -6.96899 -6.96899 h -1.02653 -1.02653 l -0.11772,1.62742 c -0.0988,1.36574 -0.2339,1.72735 -0.8403,2.24896 -0.95015,0.81728 -2.11994,0.80623 -2.95407,-0.0279 -0.54628,-0.54629 -0.64943,-0.90348 -0.64943,-2.24896 v -1.59953 h -1.59952 c -1.34549,0 -1.70268,-0.10314 -2.24896,-0.64943 -0.8655,-0.86549 -0.85891,-1.08515 0.4089,-13.63807 0.58054,-5.748072 1.05616,-10.664812 1.05693,-10.926082 7.9e-4,-0.26128 0.29365,-0.7673 0.65083,-1.12448 l 0.64943,-0.64943 h 10.02008 10.02007 l 0.58034,0.61774 c 0.53608,0.57063 0.67075,1.5138 1.76591,12.367422 0.65206,6.46234 1.18557,11.90851 1.18557,12.10262 0,0.1941 -0.34802,0.70095 -0.7734,1.12632 l -0.77339,0.77339 h -4.91515 -4.91514 l 0.004,6.94532 0.004,6.94531 1.27946,0.70539 c 1.45668,0.8031 2.84854,2.6749 3.0943,4.16129 0.0868,0.52478 0.20428,1.10298 0.26113,1.28488 0.0778,0.24901 1.31792,0.33073 5.0185,0.33073 4.86574,0 4.92165,0.007 5.56455,0.64943 l 0.64943,0.64943 v 12.07093 12.07092 l -0.77339,0.77339 c -0.6699,0.66991 -0.97085,0.7734 -2.24896,0.7734 h -1.47556 v 1.47556 c 0,1.27811 -0.10349,1.57905 -0.7734,2.24896 -0.82548,0.82548 -1.55337,0.96185 -2.48514,0.4656 -0.96189,-0.51231 -1.22215,-1.07657 -1.23096,-2.66877 l -0.008,-1.52135 h -8.96404 -8.96403 l -0.11771,1.62742 c -0.0988,1.36574 -0.23391,1.72735 -0.84031,2.24895 -0.95015,0.81728 -2.11994,0.80624 -2.95406,-0.0279 z m 26.33806,-17.34223 V 141.047 h -13.49375 -13.49375 v 8.99583 8.99583 h 13.49375 13.49375 z m -16.80104,-0.30552 c -1.36812,-0.74831 -1.62887,-2.45529 -0.54119,-3.54296 0.61649,-0.6165 0.80856,-0.64944 3.78657,-0.64944 2.78569,0 3.20164,0.0601 3.71299,0.53649 1.16337,1.08385 0.92296,2.91141 -0.47608,3.61906 -0.8224,0.41598 -5.73804,0.44392 -6.48229,0.0369 z m 5.42396,-13.56346 c 0,-1.04765 -1.14109,-2.00602 -2.38846,-2.00602 -0.65506,0 -2.10946,1.35413 -2.10946,1.96402 0,0.34719 0.37752,0.41723 2.24896,0.41723 1.76505,0 2.24896,-0.0807 2.24896,-0.37523 z m 6.52277,-25.62008 c -0.0835,-0.61847 -0.45774,-4.27964 -0.83157,-8.13594 -0.37382,-3.856302 -0.7411,-7.398412 -0.81618,-7.871352 l -0.1365,-0.8599 h -6.99947 c -6.48948,0 -6.99952,0.0337 -7.00022,0.46302 -5.3e-4,0.25466 -0.35726,3.97537 -0.793,8.268232 -0.43573,4.29287 -0.79258,8.13263 -0.79299,8.53281 l -7.6e-4,0.72761 h 8.76129 8.7613 z"
         style="fill:#585858;stroke-width:0.26458332" />
    </g>
  </g>
</svg>
