<?xml version="1.0" encoding="UTF-8" standalone="no"?>
<svg
   xmlns:dc="http://purl.org/dc/elements/1.1/"
   xmlns:cc="http://creativecommons.org/ns#"
   xmlns:rdf="http://www.w3.org/1999/02/22-rdf-syntax-ns#"
   xmlns:svg="http://www.w3.org/2000/svg"
   xmlns="http://www.w3.org/2000/svg"
   id="svg8"
   version="1.1"
   viewBox="0 0 135.46591 127.06924"
   height="127.06924mm"
   width="135.46591mm">
  <defs
     id="defs2" />
  <metadata
     id="metadata5">
    <rdf:RDF>
      <cc:Work
         rdf:about="">
        <dc:format>image/svg+xml</dc:format>
        <dc:type
           rdf:resource="http://purl.org/dc/dcmitype/StillImage" />
        <dc:title></dc:title>
      </cc:Work>
    </rdf:RDF>
  </metadata>
  <g
     transform="translate(-58.932545,-73.669899)"
     id="layer1">
    <path
       id="path4509"
       d="m 59.581975,200.08971 -0.64943,-0.64943 0.009,-31.29901 0.009,-31.29901 4.31238,-22.59714 c 3.89912,-20.431611 4.37011,-22.643891 4.91473,-23.084901 0.5375,-0.43524 1.13719,-0.48775 5.57081,-0.48775 4.42485,0 5.03404,0.0531 5.56788,0.48539 0.53993,0.4372 0.98886,2.52902 4.52275,21.073991 2.15782,11.32373 3.96606,20.63134 4.0183,20.68358 0.0522,0.0522 3.60005,-3.09098 7.88404,-6.98493 4.283985,-3.89395 9.003335,-8.18123 10.487455,-9.5273 2.92048,-2.64882 3.63608,-2.93459 4.86265,-1.94185 l 0.62462,0.50555 0.13229,9.85316 0.1323,9.85317 12.24607,-10.35871 c 13.06852,-11.05441 12.97574,-10.99085 14.38138,-9.85317 l 0.62463,0.50555 0.13229,9.85316 0.13229,9.85317 12.24607,-10.35871 c 13.06852,-11.05441 12.97574,-10.99085 14.38139,-9.85317 l 0.62462,0.50555 0.13229,9.85316 0.1323,9.85317 12.24607,-10.35871 c 13.28192,-11.23492 13.0911,-11.10705 14.48887,-9.70928 l 0.64943,0.64943 v 42.0928 42.09281 l -0.64943,0.64943 -0.64943,0.64943 H 126.66587 60.231405 Z m 24.75057,-5.70057 v -2.11667 h -10.58333 -10.58334 v 2.11667 2.11667 h 10.58334 10.58333 z M 190.16587,158.67039 c 0,-20.80948 -0.0593,-37.83542 -0.13169,-37.83542 -0.0724,0 -5.61366,4.64344 -12.31385,10.31875 -13.21105,11.19025 -13.0253,11.06571 -14.4217,9.66932 l -0.64943,-0.64943 v -9.66932 c 0,-5.31812 -0.0582,-9.66932 -0.12929,-9.66932 -0.0711,0 -5.6119,4.64344 -12.31287,10.31875 -13.21405,11.19149 -13.02777,11.06662 -14.42507,9.66932 l -0.64943,-0.64943 v -9.66932 c 0,-5.31812 -0.0556,-9.66932 -0.12364,-9.66932 -0.068,0 -5.61134,4.64344 -12.31853,10.31875 -13.21681,11.18344 -13.03369,11.0607 -14.42507,9.66932 l -0.64943,-0.64943 v -9.55908 c 0,-5.25749 -0.0975,-9.51938 -0.2166,-9.47088 -0.11913,0.0485 -4.40487,3.8982 -9.523865,8.55486 l -9.30728,8.46667 -10e-4,22.82031 -0.001,22.82032 h -2.11666 -2.11667 l 0.008,-23.0849 0.008,-23.0849 -2.84874,-15.0151 -2.84874,-15.0151 h -4.90544 -4.90543 l -2.84584,15.0151 -2.84584,15.0151 0.008,25.20157 0.008,25.20156 h 12.7 12.7 v 4.23333 4.23334 h 50.799995 50.8 z m -97.366665,31.48542 v -2.11667 h 46.566665 46.56666 v 2.11667 2.11666 H 139.36587 92.799205 Z m -21.16666,-12.7 v -2.11667 h 2.11667 2.11666 v 2.11667 2.11666 h -2.11666 -2.11667 z m 27.51666,-4.23334 v -6.35 h 8.466665 8.46667 v 6.35 6.35 h -8.46667 -8.466665 z m 12.699995,0 v -2.11666 h -4.23333 -4.23333 v 2.11666 2.11667 h 4.23333 4.23333 z m 8.46667,0 v -6.35 h 8.46667 8.46666 v 6.35 6.35 h -8.46666 -8.46667 z m 12.7,0 v -2.11666 h -4.23333 -4.23334 v 2.11666 2.11667 h 4.23334 4.23333 z m 8.46667,0 v -6.35 h 8.46666 8.46667 v 6.35 6.35 h -8.46667 -8.46666 z m 12.7,0 v -2.11666 h -4.23334 -4.23333 v 2.11666 2.11667 h 4.23333 4.23334 z m 8.46666,0 v -6.35 h 8.46667 8.46666 v 6.35 6.35 h -8.46666 -8.46667 z m 12.7,0 v -2.11666 h -4.23333 -4.23334 v 2.11666 2.11667 h 4.23334 4.23333 z M 71.632545,168.98914 v -2.11667 h 2.11667 2.11666 v 2.11667 2.11667 h -2.11666 -2.11667 z m 0,-8.46667 v -2.11666 h 2.11667 2.11666 v 2.11666 2.11667 h -2.11666 -2.11667 z m 27.51666,-4.23333 v -6.35 h 8.466665 8.46667 v 6.35 6.35 h -8.46667 -8.466665 z m 12.699995,0 v -2.11667 h -4.23333 -4.23333 v 2.11667 2.11667 h 4.23333 4.23333 z m 8.46667,0 v -6.35 h 8.46667 8.46666 v 6.35 6.35 h -8.46666 -8.46667 z m 12.7,0 v -2.11667 h -4.23333 -4.23334 v 2.11667 2.11667 h 4.23334 4.23333 z m 8.46667,0 v -6.35 h 8.46666 8.46667 v 6.35 6.35 h -8.46667 -8.46666 z m 12.7,0 v -2.11667 h -4.23334 -4.23333 v 2.11667 2.11667 h 4.23333 4.23334 z m 8.46666,0 v -6.35 h 8.46667 8.46666 v 6.35 6.35 h -8.46666 -8.46667 z m 12.7,0 v -2.11667 h -4.23333 -4.23334 v 2.11667 2.11667 h 4.23334 4.23333 z M 71.632545,152.05581 v -2.11667 h 2.11667 2.11666 v 2.11667 2.11666 h -2.11666 -2.11667 z m 6.07271,-49.14636 c -0.007,-0.25466 -0.33586,-2.12989 -0.73083,-4.167191 l -0.71811,-3.70416 h -2.5071 -2.5071 l -0.71812,3.70416 c -0.39497,2.037301 -0.72384,3.912531 -0.73083,4.167191 -0.0115,0.42096 0.34783,0.46302 3.95605,0.46302 3.60821,0 3.96759,-0.0421 3.95604,-0.46302 z m -6.03095,-19.579161 c 0.1143,-3.6447 0.6095,-4.97337 2.59276,-6.95663 1.76554,-1.76555 3.42991,-2.49529 5.69985,-2.49911 2.52731,-0.004 4.43548,0.93648 6.6028,3.25521 4.696,5.02405 5.16521,5.35185 7.06374,4.93486 0.81957,-0.18001 1.72473,-1.00792 5.39525,-4.93486 2.120015,-2.26812 4.086405,-3.25833 6.470495,-3.25833 2.3841,0 4.35049,0.99021 6.47051,3.25833 4.696,5.02405 5.16521,5.35185 7.06374,4.93486 0.81368,-0.17871 1.42295,-0.73713 5.4026,-4.95162 1.67267,-1.77137 3.72449,-2.99867 5.49303,-3.28567 l 0.97012,-0.15743 v 2.13027 2.13026 l -0.83424,0.18323 c -0.81957,0.18001 -1.72473,1.00792 -5.39525,4.93486 -4.12101,4.40889 -8.82,4.40889 -12.94101,0 -4.696,-5.02405 -5.16521,-5.35185 -7.06374,-4.93486 -0.81957,0.18001 -1.72473,1.00792 -5.395245,4.93486 -2.57627,2.75625 -5.52389,3.87258 -8.22699,3.11576 -1.89834,-0.5315 -4.13576,-2.19488 -6.02662,-4.4804 -2.48163,-2.99961 -3.32482,-3.57912 -5.20763,-3.57912 -2.92514,0 -3.94155,1.44963 -3.94219,5.6224 l -4.1e-4,2.71198 h -2.14453 -2.14454 z"
       style="fill:#3b3b3b;stroke-width:0.26458332" />
  </g>
</svg>
